<?xml version="1.0" encoding="UTF-8"?>
<svg width="124px" height="35px" viewBox="0 0 124 35" version="1.1" xmlns="http://www.w3.org/2000/svg" xmlns:xlink="http://www.w3.org/1999/xlink">
    <title>编组 4备份</title>
    <defs>
        <path d="M21.462242,2.33284271 C22.5256963,2.90194284 23.5891507,3.47094198 24.652605,4.04004212 C24.6951988,4.06276774 24.7381016,4.08478635 24.7801804,4.10837049 C26.3146901,4.96901514 26.3976116,5.84006308 24.9824365,6.83701097 C24.2574664,7.3477315 23.4664167,7.7732562 22.683041,8.19777086 C21.4837192,8.84767322 20.2825432,8.84201706 19.0972819,8.12969499 C18.0500514,7.5002962 16.947248,6.96740555 15.680559,7.15870481 C14.9074841,7.27541352 14.0934121,7.44181559 13.4170102,7.80168848 C11.7799045,8.67263541 10.1821478,9.62463707 8.62600637,10.6294632 C7.10890494,11.6091396 6.33438798,13.0575194 6.34463728,14.8483996 C6.35318694,16.3439477 6.44239184,17.8389403 6.48596422,19.3344884 C6.50569024,20.013732 6.52830049,20.7055 7.22355281,21.0800183 C7.9520252,21.4724141 8.56481964,21.0813314 9.1779231,20.7145903 C15.6088654,16.8676471 22.0405803,13.0218654 28.4842441,9.19547628 C28.9254787,8.93342458 29.451798,8.73111602 29.9594213,8.67081736 C31.1127501,8.53375659 31.5591866,8.90256823 31.7231753,10.0455661 C32.0984849,12.6611845 31.3509045,14.7125509 28.8356558,16.1884539 C23.516015,19.3100457 18.2398436,22.5029454 12.9457488,25.6666049 C11.6017007,26.4697789 10.2259262,27.2266937 8.92040316,28.0862274 C6.5942771,29.6177324 3.97998623,28.9806069 2.13815216,27.4866244 C0.883103004,26.4686174 0.30934859,25.1352293 0.273707831,23.5525158 C0.181876223,19.4680645 0.0483778889,15.3841688 0.000376173146,11.2992631 C-0.0196073738,9.60049741 0.757072748,8.17464123 2.21803484,7.2711209 C5.78278028,5.06668483 9.39341578,2.9331022 13.0000855,0.794570437 C14.7103269,-0.219497427 16.488296,-0.254595892 18.2630719,0.641601734 C19.3398142,1.18529967 20.3924527,1.77505488 21.4559585,2.34415502 C21.4580702,2.34036741 21.4601304,2.33657981 21.462242,2.33284271" id="path-1"></path>
        <linearGradient x1="77.302403%" y1="5.78505463%" x2="82.9784077%" y2="96.9222612%" id="linearGradient-3">
            <stop stop-color="#FFFFFF" offset="0%"></stop>
            <stop stop-color="#F3F5FF" stop-opacity="0.654692963" offset="50.1194308%"></stop>
            <stop stop-color="#C2CEFF" offset="68.2887034%"></stop>
            <stop stop-color="#2F57FF" offset="100%"></stop>
        </linearGradient>
        <polygon id="path-4" points="0.00345461955 0.0138209537 18.0293921 0.0138209537 18.0293921 17.3713539 0.00345461955 17.3713539"></polygon>
        <polygon id="path-6" points="0.00334908128 0.0138209537 18.0292795 0.0138209537 18.0292795 17.3713539 0.00334908128 17.3713539"></polygon>
    </defs>
    <g id="数仓设计" stroke="none" stroke-width="1" fill="none" fill-rule="evenodd">
        <g id="标签查看-02" transform="translate(-24.000000, -12.000000)">
            <g id="编组-4备份" transform="translate(24.000000, 12.000000)">
                <g id="logo备份-3">
                    <g id="形状结合">
                        <mask id="mask-2" fill="white">
                            <use xlink:href="#path-1"></use>
                        </mask>
                        <use id="蒙版" fill="#FFFFFF" xlink:href="#path-1"></use>
                        <path d="M0.000223429348,14.240111 C1.53188746,16.478885 3.83739904,17.9039491 6.41638815,17.9039491 C6.48735968,17.9039491 6.55812435,17.9028701 6.6286717,17.9007246 C6.63723309,18.1547492 6.64421461,18.409911 6.65034828,18.6650853 C6.67138682,19.5431551 6.6955015,20.4374155 7.43701415,20.9215617 C7.71528362,21.1032404 7.97772679,21.154997 8.23002714,21.12481 C7.55101214,21.4470563 6.81225117,21.6238723 6.03957455,21.6238723 C2.70399782,21.6238723 3.0916745e-14,18.3289432 3.0916745e-14,14.26441 L3.0916745e-14,14.26441 Z" fill="url(#linearGradient-3)" opacity="0.6" mask="url(#mask-2)"></path>
                    </g>
                    <path d="M12.9492672,33.4891656 C12.4985469,33.2135191 12.020642,32.9734186 11.6025841,32.6551375 C10.5823712,31.8785336 10.6013133,30.9887133 11.6599736,30.2694317 C12.4744852,29.7161499 13.3215057,29.2094296 14.1639697,28.6981705 C19.2410751,25.6165913 24.3206378,22.538888 29.4015827,19.4635817 C29.6475745,19.3147173 29.9050851,19.1748796 30.1737561,19.0749227 C30.8835229,18.8109549 31.7277788,19.1560612 31.8148102,19.8967112 C32.0854267,22.1983716 32.5212493,24.5899933 30.6560125,26.4938151 C29.998567,27.1649032 29.1382359,27.6559669 28.3245434,28.1546804 C25.2502868,30.0389698 22.1461324,31.8747598 19.0755106,33.764761 C17.4031764,34.794164 15.7175316,34.7821794 13.9818693,34.0095024 C13.6312351,33.8534472 13.303741,33.6458327 12.9655472,33.4619834 C12.9601205,33.4710611 12.9546939,33.4800879 12.9492672,33.4891656" id="Fill-5" fill="#FFFFFF"></path>
                </g>
                <g id="编组备份-13" transform="translate(43.137405, 8.244275)">
                    <polygon id="Fill-1" fill="#FFFFFF" points="0 17.4045802 2.64467046 17.4045802 2.64467046 0 0 0"></polygon>
                    <g id="编组" transform="translate(9.198478, 0.000000)">
                        <path d="M2.86029131,2.79598516 L2.86029131,14.7759906 L8.32717399,14.7759906 C8.76318778,14.7759906 9.17478706,14.6929749 9.56197181,14.5268397 C9.94883995,14.3607391 10.2829389,14.1395139 10.5645854,13.8624719 C10.8459153,13.5857414 11.0711692,13.2571045 11.2400304,12.8762496 C11.4088916,12.4957062 11.4933223,12.090836 11.4933223,11.6616044 L11.4933223,5.91037132 C11.4933223,5.48148574 11.4088916,5.07986834 11.2400304,4.706142 C11.0711692,4.33241566 10.8459153,4.00377872 10.5645854,3.71991972 C10.2829389,3.43640677 9.94883995,3.21123665 9.56197181,3.04513605 C9.17478706,2.87903546 8.76318778,2.79598516 8.32717399,2.79598516 L2.86029131,2.79598516 Z M0.0107578682,0.221460539 L8.85486536,0.221460539 C9.61474095,0.221460539 10.3251191,0.363545757 10.9867385,0.64705871 C11.6480062,0.93095231 12.2284667,1.31502533 12.7281201,1.79938159 C13.2274217,2.28408389 13.6215368,2.85149044 13.9101488,3.50191269 C14.198409,4.15271558 14.3428557,4.85148002 14.3428557,5.5989327 L14.3428557,11.973043 C14.3428557,12.7205303 14.198409,13.4196408 13.9101488,14.0700977 C13.6215368,14.7208313 13.2274217,15.2918021 12.7281201,15.78301 C12.2284667,16.2741487 11.6480062,16.6618206 10.9867385,16.9456796 C10.3251191,17.2292272 9.61474095,17.371347 8.85486536,17.371347 L0.0107578682,17.371347 L0.0107578682,0.221460539 Z" id="Fill-2" fill="#FFFFFF"></path>
                        <polygon id="Fill-4" fill="#FFFFFF" points="41.1280831 17.3713504 41.1280831 2.79598862 35.5345545 2.79598862 35.5345545 0.221429395 49.5500375 0.221429395 49.5500375 2.79598862 43.9776165 2.79598862 43.9776165 17.3713504"></polygon>
                        <g transform="translate(16.112177, 0.000000)">
                            <mask id="mask-5" fill="white">
                                <use xlink:href="#path-4"></use>
                            </mask>
                            <g id="Clip-7"></g>
                            <polygon id="Fill-6" fill="#FFFFFF" mask="url(#mask-5)" points="10.8527894 0.0138209537 7.30670329 0.0138209537 0.00345461955 17.3713677 3.27514116 17.3713677 5.08413757 12.9719859 6.11887 10.4809614 6.11897554 10.480823 6.17343329 10.3496035 6.17371472 10.3496035 9.05863867 3.43964573 11.9421203 10.4834183 7.73096716 10.4816535 6.76581963 12.9719859 12.9697816 12.9719859 14.7788132 17.3713677 18.0293921 17.3713677"></polygon>
                        </g>
                        <g transform="translate(50.939808, 0.000000)">
                            <mask id="mask-7" fill="white">
                                <use xlink:href="#path-6"></use>
                            </mask>
                            <g id="Clip-9"></g>
                            <polygon id="Fill-8" fill="#FFFFFF" mask="url(#mask-7)" points="10.8526838 0.0138209537 7.30659775 0.0138209537 0.00334908128 17.3713677 3.27503562 17.3713677 5.08403203 12.9719859 6.11876446 10.4809614 6.11887 10.480823 6.17332775 10.3496035 6.17360918 10.3496035 9.05853313 3.43964573 11.9420147 10.4834183 7.73086162 10.4816535 6.76571409 12.9719859 12.9696761 12.9719859 14.7787077 17.3713677 18.0292866 17.3713677"></polygon>
                        </g>
                    </g>
                </g>
            </g>
        </g>
    </g>
</svg>